2.5Hzlow3min_grf.mot
version=1
nRows=10
nColumns 19
inDegrees=yes
endheader
time	1_ground_force_vx	1_ground_force_vy	1_ground_force_vz	1_ground_force_px	1_ground_force_py	1_ground_force_pz	1_ground_torque_x	1_ground_torque_y	1_ground_torque_z	2_ground_force_vx	2_ground_force_vy	2_ground_force_vz	2_ground_force_px	2_ground_force_py	2_ground_force_pz	2_ground_torque_x	2_ground_torque_y	2_ground_torque_z
            2.502500	          -24.547125	          739.824496	          -43.220277	           -0.259689	            0.006385	           -0.444289	           -0.022988	            0.692839	           -0.040475	          -37.375487	          652.838842	           60.864837	           -0.241227	            0.005594	           -0.692408	            0.010771	           -0.188133	           -0.017540
            2.503000	          -24.224983	          736.758954	          -42.959077	           -0.259873	            0.006387	           -0.444606	           -0.026394	            0.802719	           -0.046805	          -37.132657	          650.446299	           60.715412	           -0.241177	            0.005593	           -0.692179	            0.009237	           -0.161811	           -0.015104
            2.503500	          -23.857308	          734.775028	          -42.739207	           -0.259789	            0.006386	           -0.444468	           -0.028107	            0.865665	           -0.050353	          -36.520373	          649.528403	           60.524155	           -0.241254	            0.005594	           -0.692388	            0.006530	           -0.116138	           -0.010822
            2.504000	          -23.535765	          731.890642	          -42.706519	           -0.259667	            0.006386	           -0.444572	           -0.028604	            0.889488	           -0.051902	          -36.045868	          647.872600	           60.564970	           -0.241219	            0.005594	           -0.692346	            0.006295	           -0.113135	           -0.010576
            2.504500	          -23.122543	          730.267833	          -42.576928	           -0.259705	            0.006385	           -0.444236	           -0.026144	            0.825690	           -0.048140	          -35.950281	          647.321292	           60.328319	           -0.241260	            0.005594	           -0.692459	            0.004622	           -0.083230	           -0.007757
            2.505000	          -22.571151	          727.021916	          -42.317071	           -0.259752	            0.006387	           -0.444593	           -0.020998	            0.676347	           -0.039367	          -35.661306	          645.113456	           60.085674	           -0.241387	            0.005593	           -0.692359	            0.001154	           -0.020868	           -0.001944
            2.505500	          -22.158347	          725.219597	          -42.371684	           -0.259635	            0.006386	           -0.444421	           -0.021351	            0.698794	           -0.040828	          -35.279901	          643.273615	           59.985088	           -0.241290	            0.005593	           -0.692302	            0.003589	           -0.065441	           -0.006102
            2.506000	          -21.743235	          721.971491	          -41.607068	           -0.259625	            0.006387	           -0.444601	           -0.020985	            0.696783	           -0.040155	          -34.615490	          640.883097	           59.694699	           -0.241254	            0.005593	           -0.692120	            0.007466	           -0.138226	           -0.012875
            2.506500	          -21.696099	          719.266169	          -41.297788	           -0.259824	            0.006386	           -0.444512	           -0.021352	            0.707855	           -0.040643	          -34.470344	          639.595061	           59.549255	           -0.241343	            0.005592	           -0.692105	            0.003099	           -0.057504	           -0.005354
            2.507000	          -21.237047	          717.102676	          -41.216490	           -0.259740	            0.006386	           -0.444505	           -0.022812	            0.770273	           -0.044273	          -33.993894	          637.387109	           59.494243	           -0.241256	            0.005594	           -0.692351	            0.003202	           -0.060038	           -0.005604
